<svg width="30" height="27" viewBox="0 0 30 27" fill="none" xmlns="http://www.w3.org/2000/svg">
<path fill-rule="evenodd" clip-rule="evenodd" d="M30 4.44533C30 4.85731 29.8709 5.23793 29.6498 5.54901C29.0602 6.4309 28.2595 7.0711 27.4603 7.7417C27.2918 7.90438 27.1912 8.12487 27.1788 8.35876C27.0895 12.4109 25.5885 17.0451 22.9143 20.1075C19.7159 23.769 15.3557 26.2529 10.3121 26.2529C9.79504 26.2529 9.37457 25.8327 9.37457 25.3154C9.37457 24.7972 9.79504 24.3779 10.3121 24.3779C19.6024 24.3779 24.6643 16.2568 25.2539 9.32374C25.2814 9.22694 25.2983 9.10196 25.2983 8.92436C25.2983 8.8653 25.2993 8.80647 25.3024 8.74881C25.3486 7.94045 25.7103 7.21624 26.2651 6.69692C26.2926 6.67061 26.3136 6.64659 26.3338 6.62233C27.0108 5.95582 27.6352 5.17694 28.1186 4.44545C27.4319 4.75354 26.7078 4.98674 25.9552 5.14448C25.8293 5.14448 25.7231 5.0383 25.7231 4.9101C25.7231 4.87947 25.7291 4.84913 25.7408 4.82082C25.7525 4.7925 25.7697 4.76678 25.7913 4.7451C25.7931 4.74305 25.7849 4.74604 25.784 4.74604C26.5228 4.1008 27.0895 3.25764 27.3944 2.29588C26.8982 2.59231 26.3745 2.84772 25.8311 3.06334C25.48 3.20321 25.0987 3.28401 24.6968 3.28401C24.0715 3.28401 23.4902 3.09586 23.0068 2.77313C22.988 2.76053 22.9688 2.75209 22.95 2.74061C22.1489 2.20248 21.2146 1.87863 20.1562 1.87863L20.0459 1.89856C17.7173 1.89856 15.9476 3.21141 15.2861 5.22123C15.2675 5.22985 15.078 6.06534 15.059 6.18528C14.8835 7.30565 13.9144 8.16235 12.7444 8.16235C12.6189 8.1625 12.4937 8.15193 12.3701 8.13077C9.29559 7.55585 6.51971 6.22623 4.44783 4.06401C4.43523 4.05346 4.42562 4.0503 4.40775 4.03242C4.13353 3.75797 3.68881 3.75797 3.41348 4.03242C3.35101 4.09552 3.30073 4.16962 3.26517 4.25098C3.25691 4.27114 3.2517 4.27114 3.24525 4.27524C2.99506 4.85338 2.81219 5.4787 2.81219 6.09692C2.81219 7.37614 3.33244 8.54385 4.11455 9.47198C4.11455 9.47315 4.10518 9.46788 4.10928 9.47198C4.18007 9.55654 4.2188 9.66334 4.21867 9.77362C4.21867 10.0323 4.00832 10.2424 3.74969 10.2424C3.69818 10.2424 3.6499 10.2289 3.60367 10.2131C3.59639 10.2098 3.58906 10.2067 3.5817 10.2037C3.5732 10.2067 3.56383 10.211 3.54894 10.2037C3.48413 10.1711 3.41256 10.1541 3.34 10.1542C3.08547 10.1542 2.87951 10.3603 2.87306 10.6124C3.11705 12.2806 4.14086 13.7575 5.52309 14.6237C5.50522 14.6218 5.49473 14.6218 5.50111 14.6255C5.56621 14.6682 5.61967 14.7264 5.65671 14.7948C5.69374 14.8633 5.71318 14.9399 5.71328 15.0178C5.71328 15.2764 5.50316 15.4865 5.24453 15.4865C5.23926 15.4865 5.23398 15.4856 5.22871 15.4856C5.22256 15.4842 5.21729 15.4824 5.21084 15.4815C5.19414 15.4792 5.17832 15.476 5.16139 15.4742C5.03529 15.4805 4.93639 15.5803 4.93639 15.7062C4.93588 15.7416 4.94382 15.7766 4.95953 15.8083C5.34109 16.7586 5.9865 17.5707 6.79908 18.1649C6.80869 18.1722 6.81074 18.1786 6.82223 18.1869C6.8916 18.2363 6.95682 18.293 7.01998 18.3553C7.65994 18.9953 7.65994 20.0339 7.01998 20.6753C6.8234 20.8703 6.5899 21.0072 6.34293 21.0827C6.34088 21.0836 6.34199 21.0827 6.33971 21.0836C5.37906 21.3885 4.36146 21.5652 3.28094 21.5652H2.69547C2.56615 21.5652 2.46109 21.6705 2.46109 21.7996C2.46109 21.8756 2.49889 21.9387 2.55355 21.9809C2.93945 22.2097 3.33473 22.4336 3.74558 22.6419L3.74465 22.6428C4.02092 22.7974 4.21135 23.0895 4.21135 23.4301C4.21135 23.9295 3.8067 24.3342 3.30725 24.3342C3.10334 24.3342 2.91631 24.2637 2.76478 24.1501C2.10789 23.8064 1.47092 23.4383 0.865525 23.0465C0.127829 22.5694 -0.185531 21.641 0.110895 20.8084C0.380075 20.0471 1.08959 19.69 1.87486 19.69C2.22367 19.7322 2.92381 19.69 3.28111 19.69C4.00117 19.69 4.59098 19.5417 5.27307 19.3769C4.24926 18.5085 3.45871 17.3522 3.03092 16.0037C2.92619 15.6736 2.91313 15.3212 2.99312 14.9842C1.78328 13.6641 0.937126 11.7444 0.937126 9.84721C0.946501 9.37729 1.24609 8.98524 1.55213 8.64991C1.2557 7.8436 0.937126 6.98391 0.937126 6.09674C0.937126 4.79965 1.43857 3.52043 2.08287 2.4051C2.39394 1.86697 3.13504 1.45799 3.7498 1.40971C4.31219 1.40971 4.80631 1.71867 5.16473 2.16229C6.93285 4.35088 9.70024 5.52709 12.4228 6.19975C12.469 6.20801 12.5185 6.2144 12.5679 6.2144C13.0147 6.2144 13.3846 5.90426 13.4814 5.48584C14.2275 2.33461 16.6736 0 20.046 0C21.4724 0 22.863 0.430078 24.039 1.20897C24.2221 1.32457 24.4354 1.39506 24.6675 1.39506C24.7705 1.39506 24.8693 1.37813 24.9627 1.35293C25.4709 1.16367 25.9657 0.943946 26.4344 0.662403C26.732 0.484571 27.063 0.471036 27.393 0.471036C27.8095 0.471036 28.2247 0.537188 28.5653 0.810469C29.176 1.30143 29.4227 2.12244 29.1842 2.87291C29.1842 2.87496 29.1833 2.87701 29.1833 2.87906C29.4358 3.05473 29.642 3.28897 29.7843 3.56175C29.9265 3.83452 30.0005 4.1377 30 4.44533ZM1.87486 19.69C1.80115 19.6818 1.94828 19.69 1.87486 19.69V19.69ZM3.74986 1.40971C3.70152 1.40971 3.79838 1.40531 3.74986 1.40971V1.40971ZM7.03152 23.9091C7.54879 23.9091 7.96926 24.3284 7.96926 24.8466C7.96926 25.3639 7.54879 25.7841 7.03152 25.7841C6.51332 25.7841 6.09402 25.3639 6.09402 24.8466C6.09402 24.3284 6.51338 23.9091 7.03152 23.9091Z" fill="white"/>
</svg>
